# xmcd
#
# Track frame offsets:
#  150
#  14870
#  27827
#  39362
#  51875
#  70167
#  84410
#  95322
#  108610
#  127297
#  142112
#  159515
#  175147
#  201925
#  221345
#  235337
#  248359
#  267912
#  291907
#
# Disc length: 4136 seconds
#
# Revision: 1
# Processed by: cddbd v1.5.1PL2 Copyright (c) Steve Scherf et al.
# Submitted via: Collectorz.com_Music_Collector 6.11
#
DISCID=16102613
DTITLE=Bee Houston - The Hustler
DYEAR=1997
DGENRE=Blues
TTITLE0=You Think I´m Your Good Thing
TTITLE1=Busy Bee
TTITLE2=Be Proud To Be A Black Man
TTITLE3=The Hustler
TTITLE4=Break Away
TTITLE5=Things Gonna Get Better
TTITLE6=Wilbert Hemsley - Never
TTITLE7=Willie Molette - Lovesick Man
TTITLE8=Freddy´s Bag
TTITLE9=Any Time
TTITLE10=Willie Mae Thornton - Woke Up This Morning
TTITLE11=When I Go Out
TTITLE12=Any Time
TTITLE13=Willie Molette - Lovesick Man
TTITLE14=Charlie´s Bag
TTITLE15=Things Gonna Get Better
TTITLE16=Willie Molette - Don´t Take Your Love From Me
TTITLE17=Blues For Rupez (D Flat Blues)
TTITLE18=Do It Easy
EXTD=
EXTT0=
EXTT1=
EXTT2=
EXTT3=
EXTT4=
EXTT5=
EXTT6=
EXTT7=
EXTT8=
EXTT9=
EXTT10=
EXTT11=
EXTT12=
EXTT13=
EXTT14=
EXTT15=
EXTT16=
EXTT17=
EXTT18=
PLAYORDER=
